<svg xmlns="http://www.w3.org/2000/svg" width="82" height="98" viewBox="0 0 82 98" fill="none">
  <path d="M24.4901 38.1646H9.12276C8.89497 36.597 8.77926 34.9933 8.77926 33.3642C8.77926 14.9371 23.6982 0 42.1064 0C43.0646 0 44.0156 0.0434429 44.9557 0.123088C32.2207 3.13513 22.7436 14.5823 22.7436 28.2524C22.7436 31.7351 23.3583 35.0729 24.4901 38.1646Z" fill="#292E61"/>
  <path d="M71.3731 49.3294C65.7215 59.6978 54.733 66.7319 42.1064 66.7319C27.1116 66.7319 14.4344 56.8197 10.2473 43.1859H26.891C31.9459 51.5631 41.1302 57.1636 51.6197 57.1636C59.2636 57.1636 66.2096 54.1842 71.3731 49.3294Z" fill="#292E61"/>
  <path d="M80.7489 30.4788C80.7489 31.2789 80.1017 31.9269 79.3026 31.9269H61.8779C61.3355 33.0673 60.1748 33.8565 58.8297 33.8565C58.6815 33.8565 58.5368 33.8457 58.3958 33.8276L52.097 43.6276C52.4188 44.1453 52.6068 44.7535 52.6068 45.4087C52.6068 47.2695 51.0918 48.7864 49.2296 48.7864C47.3675 48.7864 45.8561 47.2695 45.8561 45.4087C45.8561 44.6738 46.0911 43.9968 46.4888 43.4429L39.9297 31.583C39.861 31.5866 39.7887 31.5902 39.7164 31.5902C39.5428 31.5902 39.3729 31.5758 39.2065 31.5504L31.8122 42.5451C31.541 42.947 31.0926 43.1859 30.6117 43.1859H1.44634C0.647235 43.1859 0 42.5379 0 41.7378C0 40.9377 0.647235 40.2897 1.44634 40.2897H29.8415L36.8129 29.9322C36.5127 29.4253 36.3392 28.8352 36.3392 28.2089C36.3392 26.3445 37.8542 24.8313 39.7164 24.8313C41.5785 24.8313 43.09 26.3445 43.09 28.2089C43.09 28.9402 42.8549 29.6208 42.4572 30.1747L49.0163 42.0347L49.3237 42.5885L49.6672 42.0564L55.966 32.26C55.6405 31.7423 55.4525 31.1305 55.4525 30.4788C55.4525 28.6144 56.9675 27.0975 58.8297 27.0975C60.1748 27.0975 61.3391 27.8904 61.8779 29.0307H67.562C67.6704 28.466 67.7283 27.8904 67.7283 27.3039C67.7283 22.3948 63.7364 18.3981 58.8333 18.3981C54.7619 18.3981 51.222 21.1458 50.2168 25.0919C50.2095 25.11 50.2059 25.1245 50.2023 25.1426C50.1842 25.2222 50.1553 25.2983 50.1264 25.3707C50.0866 25.4612 50.0396 25.5444 49.9817 25.6241C49.9673 25.6458 49.9528 25.6675 49.9347 25.6892C49.8841 25.7508 49.8299 25.8087 49.772 25.863C49.7431 25.8884 49.7142 25.9137 49.6816 25.939C49.4755 26.0983 49.226 26.1997 48.9621 26.2287C48.9078 26.2359 48.8536 26.2395 48.7994 26.2395C48.7487 26.2395 48.6945 26.2359 48.6403 26.2287C48.5788 26.225 48.5137 26.2106 48.4486 26.1961C47.9135 26.0621 47.5194 25.6422 47.3928 25.1354C46.4057 21.1676 42.8585 18.3981 38.769 18.3981C33.866 18.3981 29.8741 22.3912 29.8741 27.3039C29.8741 29.0887 30.402 30.8083 31.3927 32.2817C31.8411 32.9442 31.6675 33.8457 31.0058 34.2909C30.7563 34.4611 30.4743 34.5407 30.1959 34.5407C29.733 34.5407 29.2774 34.3163 28.999 33.9036C27.6792 31.9487 26.9814 29.6679 26.9814 27.3039C26.9814 20.7947 32.2677 15.5019 38.769 15.5019C42.9489 15.5019 46.7022 17.6849 48.803 21.0988C50.9038 17.6849 54.657 15.5019 58.8333 15.5019C65.3346 15.5019 70.621 20.7947 70.621 27.3039C70.621 27.8867 70.5776 28.4624 70.4944 29.0307H79.3026C80.1017 29.0307 80.7489 29.6788 80.7489 30.4788Z" fill="url(#paint0_linear_249_1079)"/>
  <defs>
    <linearGradient id="paint0_linear_249_1079" x1="0" y1="32.1441" x2="80.7489" y2="32.1441" gradientUnits="userSpaceOnUse">
      <stop stop-color="#74A8CD"/>
      <stop offset="1" stop-color="#C9EAAC"/>
    </linearGradient>
  </defs>
</svg>
